<svg width="16" height="16" viewBox="0 0 16 16" fill="none" xmlns="http://www.w3.org/2000/svg">
<path d="M8.01456 15.264C6.8839 15.264 5.85456 15.0827 4.92656 14.72C3.99856 14.3573 3.19856 13.8453 2.52656 13.184C1.85456 12.5227 1.33723 11.7493 0.974563 10.864C0.611896 9.968 0.430563 8.992 0.430563 7.936C0.430563 6.88 0.611896 5.90933 0.974563 5.024C1.33723 4.13867 1.85456 3.37067 2.52656 2.72C3.20923 2.06933 4.0199 1.56267 4.95856 1.2C5.89723 0.837333 6.93723 0.655999 8.07856 0.655999C9.17723 0.655999 10.1852 0.831999 11.1026 1.184C12.0199 1.52533 12.8092 2.01067 13.4706 2.64C14.1426 3.25867 14.6599 3.99467 15.0226 4.848C15.3959 5.70133 15.5826 6.64 15.5826 7.664C15.5826 8.58133 15.4599 9.376 15.2146 10.048C14.9692 10.7093 14.6172 11.216 14.1586 11.568C13.7106 11.92 13.1612 12.096 12.5106 12.096C11.8492 12.096 11.3212 11.8987 10.9266 11.504C10.5426 11.1093 10.3506 10.5387 10.3506 9.792V8.88L10.4146 7.968L10.2706 5.888V4.064H12.0466V9.504C12.0466 9.90933 12.1266 10.1973 12.2866 10.368C12.4572 10.528 12.6546 10.608 12.8786 10.608C13.1666 10.608 13.4119 10.496 13.6146 10.272C13.8172 10.048 13.9666 9.71733 14.0626 9.28C14.1692 8.84267 14.2226 8.31467 14.2226 7.696C14.2226 6.84267 14.0732 6.064 13.7746 5.36C13.4866 4.656 13.0652 4.05333 12.5106 3.552C11.9666 3.04 11.3159 2.65067 10.5586 2.384C9.8119 2.10667 8.98523 1.968 8.07856 1.968C7.15056 1.968 6.3079 2.11733 5.55056 2.416C4.79323 2.704 4.14256 3.11467 3.59856 3.648C3.05456 4.18133 2.63323 4.816 2.33456 5.552C2.04656 6.27733 1.90256 7.072 1.90256 7.936C1.90256 8.82133 2.04656 9.632 2.33456 10.368C2.62256 11.104 3.03323 11.7333 3.56656 12.256C4.11056 12.7893 4.7559 13.2 5.50256 13.488C6.24923 13.7867 7.08656 13.936 8.01456 13.936C8.50523 13.936 9.02256 13.8773 9.56656 13.76C10.1106 13.6533 10.6279 13.4773 11.1186 13.232L11.5506 14.512C11.0599 14.7573 10.4946 14.944 9.85456 15.072C9.21456 15.2 8.60123 15.264 8.01456 15.264ZM7.59856 12.096C6.86256 12.096 6.20656 11.9253 5.63056 11.584C5.05456 11.232 4.5959 10.752 4.25456 10.144C3.9239 9.52533 3.75856 8.816 3.75856 8.016C3.75856 7.22667 3.9239 6.528 4.25456 5.92C4.58523 5.30133 5.03856 4.82133 5.61456 4.48C6.20123 4.13867 6.86256 3.968 7.59856 3.968C8.31323 3.968 8.93723 4.128 9.47056 4.448C10.0039 4.75733 10.4199 5.21067 10.7186 5.808C11.0172 6.40533 11.1666 7.14133 11.1666 8.016C11.1666 8.89067 11.0226 9.632 10.7346 10.24C10.4466 10.848 10.0359 11.312 9.50256 11.632C8.96923 11.9413 8.33456 12.096 7.59856 12.096ZM7.93456 10.544C8.39323 10.544 8.79856 10.448 9.15056 10.256C9.50256 10.0533 9.7799 9.76 9.98256 9.376C10.1959 8.992 10.3026 8.53867 10.3026 8.016C10.3026 7.48267 10.1959 7.03467 9.98256 6.672C9.7799 6.29867 9.50256 6.016 9.15056 5.824C8.79856 5.62133 8.39323 5.52 7.93456 5.52C7.46523 5.52 7.04923 5.62133 6.68656 5.824C6.33456 6.02667 6.05723 6.31467 5.85456 6.688C5.66256 7.06133 5.56656 7.504 5.56656 8.016C5.56656 8.53867 5.66256 8.98667 5.85456 9.36C6.05723 9.73333 6.33456 10.0267 6.68656 10.24C7.04923 10.4427 7.46523 10.544 7.93456 10.544Z" fill="url(#paint0_linear_2658_1311)"/>
<defs>
<linearGradient id="paint0_linear_2658_1311" x1="-3.34651" y1="-1.74356" x2="5.81791" y2="16.5463" gradientUnits="userSpaceOnUse">
<stop stop-color="#F9A8D4"/>
<stop offset="0.666667" stop-color="#F472B6"/>
</linearGradient>
</defs>
</svg>
