<svg width="16" height="16" viewBox="0 0 16 16" fill="none" xmlns="http://www.w3.org/2000/svg">
<g clip-path="url(#clip0_3470_1533)">
<path d="M4.29798 3.06095L4.29766 3.06157C4.23927 3.17835 4.11827 3.25004 4.00127 3.25004C3.10569 3.25004 2.23985 3.62515 1.62594 4.28197C1.32025 4.6041 1.08472 4.98616 0.934251 5.40399C0.783743 5.82193 0.721619 6.26656 0.751806 6.70974C0.751821 6.70997 0.751836 6.71019 0.751852 6.71042L1.09835 12.2077C1.09836 12.2079 1.09837 12.2082 1.09839 12.2084C1.15476 13.1888 1.49809 13.9969 2.09669 14.5597C2.69531 15.1225 3.52437 15.4167 4.50794 15.4167H11.4946C12.4858 15.4167 13.3123 15.1322 13.9082 14.5732C14.504 14.0142 14.8411 13.207 14.9041 12.2159L14.9041 12.2157L15.2508 6.70934C15.3085 5.80651 14.9971 4.94585 14.3773 4.28272C13.7634 3.62544 12.8972 3.25004 12.0013 3.25004C11.8781 3.25004 11.7621 3.17862 11.7034 3.07182L11.2255 2.1028L11.2255 2.10279L11.2241 2.10004C11.0027 1.66479 10.6236 1.28816 10.1911 1.02073C9.75864 0.753377 9.25368 0.583374 8.76794 0.583374H7.24127C6.75563 0.583374 6.24903 0.753316 5.81488 1.02152C5.3806 1.2898 4.9995 1.66833 4.77805 2.10747L4.77798 2.10761L4.29798 3.06095ZM5.63654 3.74179L5.63657 3.7418L5.63821 3.73851L6.11754 2.77984C6.11764 2.77964 6.11775 2.77943 6.11785 2.77923C6.20492 2.60806 6.37998 2.43084 6.5994 2.29518C6.78144 2.18264 6.97364 2.11128 7.14065 2.09004H7.24127H8.76127C8.94859 2.09004 9.18338 2.16595 9.4025 2.30114C9.62168 2.43636 9.79433 2.61184 9.87766 2.77851L10.3643 3.75184L10.3643 3.75188L10.3672 3.7574C10.6892 4.36316 11.3127 4.75004 12.0013 4.75004C12.4913 4.75004 12.9459 4.94751 13.2861 5.30497C13.4487 5.479 13.5739 5.6845 13.6541 5.90881C13.7343 6.13346 13.7676 6.37218 13.7518 6.61021L13.7518 6.611L13.4051 12.1173C13.3644 12.7504 13.176 13.1901 12.8757 13.4731C12.5755 13.7559 12.127 13.9167 11.4946 13.9167H4.50794C3.87185 13.9167 3.42185 13.7557 3.12188 13.4731C2.82192 13.1904 2.63509 12.7514 2.5975 12.1185L2.59744 12.1177L2.25079 6.611L2.25062 6.60868C2.21579 6.12681 2.38341 5.66177 2.71653 5.30485C3.05673 4.94747 3.51129 4.75004 4.00127 4.75004C4.69074 4.75004 5.31485 4.36219 5.63654 3.74179Z" fill="url(#paint0_linear_3470_1533)" stroke="url(#paint1_linear_3470_1533)" stroke-width="0.5"/>
<path d="M6.99992 6.08337H8.99992C9.41132 6.08337 9.74992 5.74478 9.74992 5.33337C9.74992 4.92197 9.41132 4.58337 8.99992 4.58337H6.99992C6.58851 4.58337 6.24992 4.92197 6.24992 5.33337C6.24992 5.74478 6.58851 6.08337 6.99992 6.08337ZM5.08325 9.83337C5.08325 11.4448 6.38851 12.75 7.99992 12.75C9.61132 12.75 10.9166 11.4448 10.9166 9.83337C10.9166 8.22197 9.61132 6.91671 7.99992 6.91671C6.38851 6.91671 5.08325 8.22197 5.08325 9.83337ZM6.99818 8.83164C7.26386 8.56596 7.6242 8.41671 7.99992 8.41671C8.37564 8.41671 8.73598 8.56596 9.00165 8.83164C9.26733 9.09732 9.41659 9.45765 9.41659 9.83337C9.41659 10.2091 9.26733 10.5694 9.00165 10.8351C8.73598 11.1008 8.37564 11.25 7.99992 11.25C7.6242 11.25 7.26386 11.1008 6.99818 10.8351C6.73251 10.5694 6.58325 10.2091 6.58325 9.83337C6.58325 9.45765 6.73251 9.09732 6.99818 8.83164Z" fill="url(#paint2_linear_3470_1533)" stroke="url(#paint3_linear_3470_1533)" stroke-width="0.5"/>
</g>
<defs>
<linearGradient id="paint0_linear_3470_1533" x1="-3.35622" y1="0.0721079" x2="6.15257" y2="18.6254" gradientUnits="userSpaceOnUse">
<stop stop-color="#F9A8D4"/>
<stop offset="0.666667" stop-color="#F472B6"/>
</linearGradient>
<linearGradient id="paint1_linear_3470_1533" x1="-3.35622" y1="0.0721079" x2="6.15257" y2="18.6254" gradientUnits="userSpaceOnUse">
<stop stop-color="#F9A8D4"/>
<stop offset="0.666667" stop-color="#F472B6"/>
</linearGradient>
<linearGradient id="paint2_linear_3470_1533" x1="3.67744" y1="4.42619" x2="9.61995" y2="12.6764" gradientUnits="userSpaceOnUse">
<stop stop-color="#F9A8D4"/>
<stop offset="0.666667" stop-color="#F472B6"/>
</linearGradient>
<linearGradient id="paint3_linear_3470_1533" x1="3.67744" y1="4.42619" x2="9.61995" y2="12.6764" gradientUnits="userSpaceOnUse">
<stop stop-color="#F9A8D4"/>
<stop offset="0.666667" stop-color="#F472B6"/>
</linearGradient>
<clipPath id="clip0_3470_1533">
<rect width="16" height="16" fill="white"/>
</clipPath>
</defs>
</svg>
