<svg width="16" height="16" viewBox="0 0 16 16" fill="none" xmlns="http://www.w3.org/2000/svg">
<path opacity="0.4" d="M8.00073 11.5666C8.28893 11.5666 8.56533 11.4522 8.76912 11.2484C8.97291 11.0446 9.0874 10.7682 9.0874 10.48C9.0874 10.1918 8.97291 9.91538 8.76912 9.71159C8.56533 9.5078 8.28893 9.39331 8.00073 9.39331C7.71253 9.39331 7.43613 9.5078 7.23234 9.71159C7.02855 9.91538 6.91406 10.1918 6.91406 10.48C6.91406 10.7682 7.02855 11.0446 7.23234 11.2484C7.43613 11.4522 7.71253 11.5666 8.00073 11.5666V11.5666Z" fill="url(#paint0_linear_2658_1303)"/>
<path d="M11.1002 6.29395H4.90016C2.16683 6.29395 1.3335 7.12728 1.3335 9.86061V11.1006C1.3335 13.8339 2.16683 14.6673 4.90016 14.6673H11.1002C13.8335 14.6673 14.6668 13.8339 14.6668 11.1006V9.86061C14.6668 7.12728 13.8335 6.29395 11.1002 6.29395V6.29395ZM8.00016 12.4939C6.88683 12.4939 5.98683 11.5873 5.98683 10.4806C5.98683 9.37395 6.88683 8.46728 8.00016 8.46728C9.1135 8.46728 10.0135 9.37395 10.0135 10.4806C10.0135 11.5873 9.1135 12.4939 8.00016 12.4939Z" fill="url(#paint1_linear_2658_1303)"/>
<path opacity="0.4" d="M4.74583 6.29992V5.51992C4.74583 3.56659 5.29917 2.26659 7.99917 2.26659C10.6992 2.26659 11.2525 3.56659 11.2525 5.51992V6.29992C11.5925 6.30659 11.8992 6.31992 12.1858 6.35992V5.51992C12.1858 3.71992 11.7525 1.33325 7.99917 1.33325C4.24583 1.33325 3.8125 3.71992 3.8125 5.51992V6.35325C4.0925 6.31992 4.40583 6.29992 4.74583 6.29992V6.29992Z" fill="url(#paint2_linear_2658_1303)"/>
<defs>
<linearGradient id="paint0_linear_2658_1303" x1="6.23932" y1="9.27788" x2="7.66199" y2="12.1172" gradientUnits="userSpaceOnUse">
<stop stop-color="#F9A8D4"/>
<stop offset="0.666667" stop-color="#F472B6"/>
</linearGradient>
<linearGradient id="paint1_linear_2658_1303" x1="-2.80604" y1="5.84922" x2="1.11239" y2="18.3017" gradientUnits="userSpaceOnUse">
<stop stop-color="#F9A8D4"/>
<stop offset="0.666667" stop-color="#F472B6"/>
</linearGradient>
<linearGradient id="paint2_linear_2658_1303" x1="1.21287" y1="1.06628" x2="3.47909" y2="8.60028" gradientUnits="userSpaceOnUse">
<stop stop-color="#F9A8D4"/>
<stop offset="0.666667" stop-color="#F472B6"/>
</linearGradient>
</defs>
</svg>
