<svg width="16" height="16" viewBox="0 0 16 16" fill="none" xmlns="http://www.w3.org/2000/svg">
<path opacity="0.4" d="M8.00016 1.33325C6.2535 1.33325 4.8335 2.75325 4.8335 4.49992C4.8335 6.21325 6.1735 7.59992 7.92016 7.65992C7.9735 7.65325 8.02683 7.65325 8.06683 7.65992H8.1135C8.93307 7.63257 9.70988 7.28757 10.2797 6.69786C10.8495 6.10814 11.1676 5.31994 11.1668 4.49992C11.1668 2.75325 9.74683 1.33325 8.00016 1.33325Z" fill="url(#paint0_linear_2658_1295)"/>
<path d="M11.3866 9.43269C9.52664 8.19269 6.49331 8.19269 4.61997 9.43269C3.77331 9.99935 3.30664 10.766 3.30664 11.586C3.30664 12.406 3.77331 13.166 4.61331 13.726C5.54664 14.3527 6.77331 14.666 7.99997 14.666C9.22664 14.666 10.4533 14.3527 11.3866 13.726C12.2266 13.1594 12.6933 12.3994 12.6933 11.5727C12.6866 10.7527 12.2266 9.99269 11.3866 9.43269Z" fill="url(#paint1_linear_2658_1295)"/>
<defs>
<linearGradient id="paint0_linear_2658_1295" x1="2.86722" y1="0.997233" x2="7.00605" y2="9.26601" gradientUnits="userSpaceOnUse">
<stop stop-color="#F9A8D4"/>
<stop offset="0.666667" stop-color="#F472B6"/>
</linearGradient>
<linearGradient id="paint1_linear_2658_1295" x1="0.392408" y1="8.17534" x2="3.3829" y2="17.2649" gradientUnits="userSpaceOnUse">
<stop stop-color="#F9A8D4"/>
<stop offset="0.666667" stop-color="#F472B6"/>
</linearGradient>
</defs>
</svg>
