<svg width="35" height="35" viewBox="0 0 35 35" fill="none" xmlns="http://www.w3.org/2000/svg">
<path d="M5.25 5.25C4.2835 5.25 3.5 6.0335 3.5 7C3.5 7.9665 4.2835 8.75 5.25 8.75H24.5C25.4665 8.75 26.25 7.9665 26.25 7C26.25 6.0335 25.4665 5.25 24.5 5.25H5.25Z" fill="url(#paint0_linear_2658_1719)"/>
<path d="M5.25 12.25C4.2835 12.25 3.5 13.0335 3.5 14C3.5 14.9665 4.2835 15.75 5.25 15.75H14C14.9665 15.75 15.75 14.9665 15.75 14C15.75 13.0335 14.9665 12.25 14 12.25H5.25Z" fill="url(#paint1_linear_2658_1719)"/>
<path d="M5.25 19.25C4.2835 19.25 3.5 20.0335 3.5 21C3.5 21.9665 4.2835 22.75 5.25 22.75H12.25C13.2165 22.75 14 21.9665 14 21C14 20.0335 13.2165 19.25 12.25 19.25H5.25Z" fill="url(#paint2_linear_2658_1719)"/>
<path d="M22.75 28C22.75 28.9665 23.5335 29.75 24.5 29.75C25.4665 29.75 26.25 28.9665 26.25 28L26.25 18.2249L28.5126 20.4874C29.196 21.1709 30.304 21.1709 30.9874 20.4874C31.6709 19.804 31.6709 18.696 30.9874 18.0126L25.7374 12.7626C25.4092 12.4344 24.9641 12.25 24.5 12.25C24.0359 12.25 23.5908 12.4344 23.2626 12.7626L18.0126 18.0126C17.3291 18.696 17.3291 19.804 18.0126 20.4874C18.696 21.1709 19.804 21.1709 20.4874 20.4874L22.75 18.2249L22.75 28Z" fill="url(#paint3_linear_2658_1719)"/>
<defs>
<linearGradient id="paint0_linear_2658_1719" x1="-5.19302" y1="3.94877" x2="9.53263" y2="37.5358" gradientUnits="userSpaceOnUse">
<stop stop-color="#F9A8D4"/>
<stop offset="0.666667" stop-color="#F472B6"/>
</linearGradient>
<linearGradient id="paint1_linear_2658_1719" x1="-5.19302" y1="3.94877" x2="9.53263" y2="37.5358" gradientUnits="userSpaceOnUse">
<stop stop-color="#F9A8D4"/>
<stop offset="0.666667" stop-color="#F472B6"/>
</linearGradient>
<linearGradient id="paint2_linear_2658_1719" x1="-5.19302" y1="3.94877" x2="9.53263" y2="37.5358" gradientUnits="userSpaceOnUse">
<stop stop-color="#F9A8D4"/>
<stop offset="0.666667" stop-color="#F472B6"/>
</linearGradient>
<linearGradient id="paint3_linear_2658_1719" x1="-5.19302" y1="3.94877" x2="9.53263" y2="37.5358" gradientUnits="userSpaceOnUse">
<stop stop-color="#F9A8D4"/>
<stop offset="0.666667" stop-color="#F472B6"/>
</linearGradient>
</defs>
</svg>
